<svg xmlns="http://www.w3.org/2000/svg" viewBox="0 0 45 45"><defs><style>.cls-1{fill:#657786;}</style></defs><g id="Text_Placement" data-name="Text Placement"><path class="cls-1" d="M25.81,6.79h0l-6.6,0h0A12.3,12.3,0,0,0,6.77,19.2c0,6.52,5.08,11.47,11.89,11.74V37a1.34,1.34,0,0,0,.19.64,1.19,1.19,0,0,0,1,.56A1.16,1.16,0,0,0,20.5,38c.42-.27,10.31-6.59,12.88-8.77a13.46,13.46,0,0,0,4.85-10h0A12.3,12.3,0,0,0,25.81,6.79Zm6,20.66C30,29,24.09,32.87,21.05,34.84V29.77a1.19,1.19,0,0,0-1.19-1.2h-.64c-5.83,0-10.06-3.94-10.06-9.37a9.93,9.93,0,0,1,10-10l6.6,0h0a9.93,9.93,0,0,1,10,10A11,11,0,0,1,31.84,27.45Z"/></g></svg>