<svg xmlns="http://www.w3.org/2000/svg" viewBox="0 0 45 45"><defs><style>.cls-1{fill:#8899a6;}</style></defs><g id="Text_Placement" data-name="Text Placement"><path class="cls-1" d="M42.84,27.91a1.19,1.19,0,0,0-1.69,0L37.1,32V14.62a6,6,0,0,0-6-6H20.54a1.19,1.19,0,1,0,0,2.38H31.12a3.59,3.59,0,0,1,3.59,3.59V32l-4.05-4.05A1.2,1.2,0,0,0,29,29.6l6.09,6.09a1.19,1.19,0,0,0,.84.35,1.23,1.23,0,0,0,.85-.35l6.09-6.09A1.21,1.21,0,0,0,42.84,27.91Z"/><path class="cls-1" d="M24.47,34H13.88a3.59,3.59,0,0,1-3.59-3.59V13l4.06,4.05a1.18,1.18,0,0,0,1.68,0,1.19,1.19,0,0,0,0-1.69L9.94,9.31a1.21,1.21,0,0,0-1.69,0L2.16,15.4a1.21,1.21,0,0,0,0,1.69,1.19,1.19,0,0,0,1.69,0L7.9,13V30.38a6,6,0,0,0,6,6H24.47a1.19,1.19,0,1,0,0-2.38Z"/></g></svg>