<svg xmlns="http://www.w3.org/2000/svg" viewBox="0 0 45 45"><defs><style>.cls-1{fill:#8899a6;}</style></defs><g id="Text_Placement" data-name="Text Placement"><path class="cls-1" d="M31,15.42,23.31,7.78a1.14,1.14,0,0,0-1.62,0L14,15.42a1.15,1.15,0,0,0,1.62,1.63l5.69-5.69V26.94a1.15,1.15,0,0,0,2.3,0V11.36l5.69,5.69a1.13,1.13,0,0,0,.81.33,1.17,1.17,0,0,0,.81-.33A1.15,1.15,0,0,0,31,15.42Z"/><path class="cls-1" d="M34.29,37.56H10.71a3.51,3.51,0,0,1-3.5-3.51V25.41a1.15,1.15,0,1,1,2.29,0v8.64a1.22,1.22,0,0,0,1.21,1.22H34.29a1.22,1.22,0,0,0,1.21-1.22V25.41a1.15,1.15,0,1,1,2.29,0v8.64A3.51,3.51,0,0,1,34.29,37.56Z"/></g></svg>