<svg xmlns="http://www.w3.org/2000/svg" viewBox="0 0 250 250"><defs><style>.cls-1{fill:#ffd85a;}.cls-2{fill:#ffbc5a;}</style></defs><g id="Rules"><circle class="cls-1" cx="125" cy="125" r="125"/><path class="cls-2" d="M171.36,202.8A125,125,0,0,1,62.18,16.92a125,125,0,1,0,172,169A124.38,124.38,0,0,1,171.36,202.8Z"/><circle class="cls-2" cx="80.69" cy="53.05" r="10.66"/><circle class="cls-2" cx="132.33" cy="128.36" r="12.8"/><circle class="cls-2" cx="207" cy="125" r="24.72"/><circle class="cls-2" cx="147.7" cy="82.22" r="8.84"/><circle class="cls-2" cx="132.33" cy="19.71" r="6.25"/><circle class="cls-2" cx="91.35" cy="97.31" r="2.98"/><path class="cls-2" d="M46.36,79.3a5.92,5.92,0,1,1,5.92-5.92A5.92,5.92,0,0,1,46.36,79.3Z"/><path class="cls-1" d="M46.36,69A4.42,4.42,0,1,1,42,73.38,4.41,4.41,0,0,1,46.36,69m0-3a7.42,7.42,0,1,0,7.42,7.41A7.41,7.41,0,0,0,46.36,66Z"/><path class="cls-2" d="M101.71,193.9a12.35,12.35,0,1,1,12.35-12.35A12.37,12.37,0,0,1,101.71,193.9Z"/><path class="cls-1" d="M101.71,171.19a10.36,10.36,0,1,1-10.36,10.36,10.36,10.36,0,0,1,10.36-10.36m0-4a14.36,14.36,0,1,0,14.35,14.36,14.37,14.37,0,0,0-14.35-14.36Z"/></g></svg>