<svg xmlns="http://www.w3.org/2000/svg" viewBox="0 0 45 45"><defs><style>.cls-1{fill:#1d9bf0;}</style></defs><g id="Text_Placement" data-name="Text Placement"><path class="cls-1" d="M14.08,40.69A26,26,0,0,1,0,36.57a19.82,19.82,0,0,0,2.19.12A18.48,18.48,0,0,0,13.6,32.76,9.19,9.19,0,0,1,5,26.38a8.88,8.88,0,0,0,1.72.17,9.31,9.31,0,0,0,2.43-.33,9.17,9.17,0,0,1-7.37-9V17.1A9,9,0,0,0,6,18.25,9.17,9.17,0,0,1,3.12,6a26.08,26.08,0,0,0,18.93,9.6A9.19,9.19,0,0,1,37.7,7.21,18.37,18.37,0,0,0,43.53,5a9.17,9.17,0,0,1-4,5.08,18.34,18.34,0,0,0,5.28-1.44,18.51,18.51,0,0,1-4.59,4.75c0,.4,0,.79,0,1.19,0,12.14-9.24,26.13-26.13,26.13"/></g></svg>