<svg xmlns="http://www.w3.org/2000/svg" viewBox="0 0 45 45"><defs><style>.cls-1{fill:#1d9bf0;}</style></defs><g id="Video_and_Imagery" data-name="Video and Imagery"><path class="cls-1" d="M43.82,23.52a8.15,8.15,0,0,0-4.36-7.31,8.61,8.61,0,0,0,.48-2.85,7.94,7.94,0,0,0-7.75-8.11,7.37,7.37,0,0,0-2.71.5,7.62,7.62,0,0,0-14,0,7.41,7.41,0,0,0-2.71-.5,7.94,7.94,0,0,0-7.75,8.11,8.61,8.61,0,0,0,.48,2.85,8.31,8.31,0,0,0-.42,14.38,9.11,9.11,0,0,0-.06,1.05,7.94,7.94,0,0,0,7.75,8.12,7.42,7.42,0,0,0,2.71-.51,7.62,7.62,0,0,0,14,0,7.38,7.38,0,0,0,2.71.51,7.94,7.94,0,0,0,7.75-8.12,9.1,9.1,0,0,0-.07-1.05A8.2,8.2,0,0,0,43.82,23.52ZM30.39,16.75l-8.8,13.19a1.54,1.54,0,0,1-1.27.68,1.56,1.56,0,0,1-.85-.25l-.23-.19-4.9-4.91a1.53,1.53,0,0,1,0-2.15,1.51,1.51,0,0,1,2.15,0l3.59,3.59,7.77-11.65a1.53,1.53,0,1,1,2.54,1.69Z"/></g></svg>